<svg width="18" height="24" viewBox="0 0 18 24" fill="none" xmlns="http://www.w3.org/2000/svg">
<path d="M17.5 6H12.5C12.224 6 12 5.775 12 5.49998V0.500016C12 0.224016 11.776 0 11.5 0H1.5C0.672984 0 0 0.672984 0 1.5V22.5C0 23.327 0.672984 24 1.5 24H16.5C17.327 24 18 23.327 18 22.5V6.50002C18 6.22402 17.776 6 17.5 6ZM17 22.5C17 22.775 16.776 23 16.5 23H1.5C1.224 23 0.999984 22.775 0.999984 22.5V1.5C0.999984 1.22498 1.224 0.999984 1.5 0.999984H11V5.49998C11 6.327 11.673 6.99998 12.5 6.99998H17V22.5Z" fill="white"/>
</svg>
